<svg version="1.1" id="__2f4td66__Layer_1" xmlns="http://www.w3.org/2000/svg" xmlns:xlink="http://www.w3.org/1999/xlink" fill="#fafafa" x="0px" y="0px" viewBox="0 0 1168 292" style="enable-background:new 0 0 1168 292;" xml:space="preserve" class="fill-current"><path id="__2f4td66__logo_footer" class="__2f4td66__st0 " d="M25.8,0l279.7,11.1c0,0,6,0.6,8.3,1.1c33.1,6.5,60.9,25.1,79.7,50.6c0.1,0.1,0.4,0.5,0.5,0.5 c83.7,105.2,218.8,65.1,249.4,68.8l479.3,59.3v0.1c0.3,0,0.5,0,1,0c27.6,3.4,47.3,28.6,43.9,56.2c-3.4,27.7-28.5,47.4-56.2,44 c-0.3-0.1-0.6-0.2-1-0.2c0,0-450.9-55.7-480.2-59.2c-26.4-3.3-129.7-83.2-250.9,0.2c-27.1,26.5-65.7,40.8-106.2,35.8 c-3.7-0.5-13.5-2.6-13.5-2.6L0,210.4l3.2-26.9l310.4,38.3l3.6-29.5L6.9,154l4.2-33.9l310.3,38.3l3.7-29.3L14.6,90.8l3.8-31.9 l308.4,38.2l3.8-29.4L22.1,29.5L25.8,0z"></path></svg>