<svg version="1.1" id="__2Sg39mO__Layer_1" xmlns="http://www.w3.org/2000/svg" xmlns:xlink="http://www.w3.org/1999/xlink" x="0px" y="0px" viewBox="0 0 40 40" style="enable-background:new 0 0 40 40;" xml:space="preserve" class="h-16 w-16 desktop:h-16 desktop:w-16 fill-current"><path id="__2Sg39mO__path-1_1_" d="M10,33.6c0.1-0.1,0.1-0.1,0.1-0.1c1.5-3.3,3-6.7,4.4-10c0.2-0.4,0-0.5-0.3-0.5c-3.1-0.6-6.2-1.2-9.3-1.7 c-0.2,0-0.4-0.2-0.5,0s0.1,0.3,0.2,0.5L8.3,30C8.9,31.1,9.4,32.4,10,33.6L10,33.6z M36.6,21c0.1-0.2,0-0.2,0-0.3 C34.8,16.8,33,12.9,31.3,9c0-0.1-0.1-0.3-0.2-0.3c-0.2,0-0.2,0.2-0.3,0.3c-1.6,2.8-3.1,5.6-4.7,8.4c-0.3,0.5-0.3,0.5,0.3,0.7 c2.7,0.8,5.4,1.5,8.1,2.3C35.1,20.6,35.8,20.8,36.6,21L36.6,21z M12.5,34.4C12.5,34.5,12.5,34.5,12.5,34.4c7.8-3.6,15.5-7.3,23.3-11 c-0.2-0.1-0.2-0.1-0.3-0.1c-3.5-1-7.1-2-10.6-3c-0.4-0.1-0.5,0-0.7,0.3c-0.5,1-1.1,1.9-1.6,2.9c-0.4,0.6-0.8,0.9-1.5,0.7 C20,24,19,23.8,17.9,23.6c-0.4-0.1-0.6,0-0.8,0.4c-1,2.4-2.1,4.8-3.1,7.1C13.4,32.3,13,33.4,12.5,34.4L12.5,34.4z M29.5,5.6 c0-0.8-0.2-1-0.9-0.7c-1.8,0.9-3.7,1.7-5.5,2.6c-4.2,2-8.5,4-12.7,6C8,14.7,5.5,15.8,3.1,17c-0.5,0.2-0.6,0.5-0.2,0.9 c0.3,0.3,0.8,0.5,1.2,0.6c5.3,1,10.7,2,16,3c0.4,0.1,0.6,0,0.9-0.4c2.7-4.9,5.4-9.8,8.2-14.6C29.4,6.2,29.5,5.9,29.5,5.6L29.5,5.6z M40,23.4c-0.3,0.8-0.8,1.3-1.5,1.6c-4.6,2.2-9.2,4.4-13.8,6.6c-4.2,2-8.5,4-12.7,6.1c-0.5,0.2-1,0.4-1.6,0.4 c-0.8-0.1-1.3-0.5-1.7-1.2c-2.8-6.2-5.6-12.4-8.5-18.5c-0.6-1.3,0-2.6,1.1-3.1c3.9-2,7.7-3.8,11.6-5.7S20.7,5.9,24.6,4 c1.3-0.6,2.6-1.2,3.9-1.8c1.1-0.5,2.3-0.1,2.8,1.1c0.7,1.4,1.4,2.9,2,4.4c1.7,3.6,3.3,7.3,5,10.9c0.6,1.2,1.1,2.5,1.7,3.7 C40,22.3,40,23.4,40,23.4z"></path></svg>