<svg version="1.1" id="__3MF_en5__Layer_1" xmlns="http://www.w3.org/2000/svg" xmlns:xlink="http://www.w3.org/1999/xlink" x="0px" y="0px" viewBox="0 0 40 40" style="enable-background:new 0 0 40 40;" xml:space="preserve" class="h-16 w-16 desktop:h-16 desktop:w-16 fill-current"><path id="__3MF_en5__path-1_1_" d="M20.2,37.1c0.9,0,1.7-0.7,1.7-1.6c0-0.9-0.7-1.6-1.7-1.6c-0.9,0-1.7,0.7-1.7,1.6 C18.5,36.4,19.2,37.1,20.2,37.1z M30.4,36.1V3.9c0-1.3-1-2.3-2.3-2.3H11.9c-1.3,0-2.3,1-2.3,2.3v32.3c0,1.3,1,2.3,2.3,2.3H28 C29.4,38.4,30.4,37.4,30.4,36.1z M32,36.1c0,2.1-1.8,3.9-3.9,3.9H11.9C9.8,40,8,38.3,8,36.1V3.9C8,1.7,9.8,0,11.9,0H28 c2.2,0,4,1.7,4,3.9V36.1z M9.6,5.5V31h20.8V5.5H9.6z M8.8,4h22.4C31.6,4,32,4.4,32,4.8v27c0,0.4-0.4,0.8-0.8,0.8H8.8 c-0.4,0-0.8-0.3-0.8-0.8v-27C8,4.4,8.4,4,8.8,4z"></path></svg>